<svg xmlns="http://www.w3.org/2000/svg" viewBox="0 0 32 32" fill="none" stroke="#88C0D0" stroke-width="2.5" stroke-linecap="round">
  <g transform="translate(16,16)">
    <!-- Arm 1 -->
    <g>
      <line x1="0" y1="0" x2="0" y2="-13" />
      <path d="M0 -6 L-4 -10 M0 -6 L4 -10" />
    </g>
    <!-- Arm 2 -->
    <g transform="rotate(60)">
      <line x1="0" y1="0" x2="0" y2="-13" />
      <path d="M0 -6 L-4 -10 M0 -6 L4 -10" />
    </g>
    <!-- Arm 3 -->
    <g transform="rotate(120)">
      <line x1="0" y1="0" x2="0" y2="-13" />
      <path d="M0 -6 L-4 -10 M0 -6 L4 -10" />
    </g>
    <!-- Arm 4 -->
    <g transform="rotate(180)">
      <line x1="0" y1="0" x2="0" y2="-13" />
      <path d="M0 -6 L-4 -10 M0 -6 L4 -10" />
    </g>
    <!-- Arm 5 -->
    <g transform="rotate(240)">
      <line x1="0" y1="0" x2="0" y2="-13" />
      <path d="M0 -6 L-4 -10 M0 -6 L4 -10" />
    </g>
    <!-- Arm 6 -->
    <g transform="rotate(300)">
      <line x1="0" y1="0" x2="0" y2="-13" />
      <path d="M0 -6 L-4 -10 M0 -6 L4 -10" />
    </g>
  </g>
  <!-- Sharp precision hub -->
  <circle cx="16" cy="16" r="1.2" fill="#88C0D0" stroke="none"/>
</svg>
